<?xml version="1.0" encoding="UTF-8"?>
<svg viewBox="0 0 640 480" xmlns="http://www.w3.org/2000/svg">
 <defs>
  <radialGradient id="a" cx="688.57" cy="336.7" r="282.86" gradientTransform="matrix(.89775 0 0 1.2287 -136.38 101.5)" gradientUnits="userSpaceOnUse">
   <stop stop-color="#fff" offset="0"/>
   <stop stop-color="#e6e6e6" offset="1"/>
  </radialGradient>
 </defs>
 <rect transform="matrix(2.7608 0 0 2.3821 -911.45 2661.3)" x="331.98" y="-1114.5" width="141.43" height="193.57" fill="url(#a)" fill-rule="evenodd"/>
 <g fill="none" stroke-width=".5">
  <path d="m3.1122 210.61h392.42" stroke="#00f"/>
  <path d="m91.851 8.13v458.56" stroke="#f00"/>
  <g stroke="#00f">
   <path d="m3.1122 186.79h392.42"/>
   <path d="m3.1122 162.97h392.42"/>
   <path d="m3.1122 139.15h392.42"/>
   <path d="m3.1122 115.33h392.42"/>
   <path d="m3.1122 91.505h392.42"/>
   <path d="m3.1122 67.683h392.42"/>
   <path d="m3.1122 43.862h392.42"/>
   <path d="m3.1122 401.18h392.42"/>
   <path d="m3.1122 377.36h392.42"/>
   <path d="m3.1122 353.54h392.42"/>
   <path d="m3.1122 329.72h392.42"/>
   <path d="m3.1122 305.9h392.42"/>
   <path d="m3.1122 282.08h392.42"/>
   <path d="m3.1122 258.25h392.42"/>
   <path d="m3.1122 234.43h392.42"/>
   <path d="m3.1122 448.83h392.42"/>
   <path d="m3.1122 425h392.42"/>
  </g>
 </g>
</svg>
