<?xml version="1.0" encoding="UTF-8"?>
<svg viewBox="0 0 590 400" xmlns="http://www.w3.org/2000/svg" xmlns:xlink="http://www.w3.org/1999/xlink">
 <defs>
  <filter id="b">
   <feGaussianBlur stdDeviation="3.37474"/>
  </filter>
  <linearGradient id="a">
   <stop stop-color="#fff" offset="0"/>
   <stop stop-color="#fff" stop-opacity="0" offset="1"/>
  </linearGradient>
  <linearGradient id="ab" x1="228.57" x2="220.5" y1="752.08" y2="521.72" gradientUnits="userSpaceOnUse">
   <stop stop-color="#f60" offset="0"/>
   <stop stop-color="#f60" stop-opacity="0" offset="1"/>
  </linearGradient>
 </defs>
 <g transform="translate(-770 -730)">
  <g transform="matrix(2 0 0 2 219.74 112.86)">
   <g transform="matrix(1 0 0 1 232.65 -250.94)">
    <path transform="matrix(1.0222 0 0 1.044 -3.7005 504.69)" d="m222.52 60.99c-26.624 0-48.633 8.5483-52.226 19.656-6.6955-1.1067-13.972-1.7188-21.608-1.7188-32.53 0-58.907 11.043-58.907 24.656 0 0.75473 0.08653 1.4813 0.24519 2.2188h-0.24519c-21.363 0-38.679 13.257-38.679 29.594 0 9.6872 6.0969 18.261 15.508 23.656-0.36584 1.9284-0.58233 3.8868-0.58233 5.9062 0 19.802 18.309 35.875 40.886 35.875 4.4614 0 8.7614-0.65378 12.781-1.8125 0.48146 16.915 14.641 30.5 32.059 30.5 6.3283 0 12.223-1.8143 17.194-4.9062 4.3457 4.211 9.6216 6.6875 15.325 6.6875 6.0431 0 11.637-2.7891 16.121-7.4688 10.673 7.904 25.894 12.844 42.786 12.844 32.287 0 58.478-18.067 58.478-40.344 0-1.2441-0.0854-2.4722-0.24519-3.6875 14.005-4.2659 23.968-15.246 23.968-28.125 0-11.94-8.5547-22.254-20.964-27.094 6.6333-4.3356 10.421-9.3041 10.421-14.594 0-6.507-5.7256-12.519-15.447-17.469 1.9986-2.6805 3.1262-5.7278 3.1262-8.9687 0-10.643-12.196-19.281-27.247-19.281-0.7631 0-1.5208 0.05025-2.268 0.09375-6.5702-9.3815-26.683-16.219-50.479-16.219z" filter="url(#b)"/>
    <path d="m224.31 573.71c-26.624 0-48.633 8.5483-52.226 19.656-6.6955-1.1067-13.972-1.7188-21.608-1.7188-32.53 0-58.907 11.043-58.907 24.656 0 0.75473 0.08653 1.4813 0.24519 2.2188h-0.24519c-21.363 0-38.679 13.257-38.679 29.594 0 9.6872 6.0969 18.261 15.508 23.656-0.36584 1.9284-0.58233 3.8868-0.58233 5.9062 0 19.802 18.309 35.875 40.886 35.875 4.4614 0 8.7614-0.65378 12.781-1.8125 0.48146 16.915 14.641 30.5 32.059 30.5 6.3283 0 12.223-1.8143 17.194-4.9062 4.3457 4.211 9.6216 6.6875 15.325 6.6875 6.0431 0 11.637-2.7891 16.121-7.4688 10.673 7.904 25.894 12.844 42.786 12.844 32.287 0 58.478-18.067 58.478-40.344 0-1.2441-0.0854-2.4722-0.24519-3.6875 14.005-4.2659 23.968-15.246 23.968-28.125 0-11.94-8.5547-22.254-20.964-27.094 6.6333-4.3356 10.421-9.3041 10.421-14.594 0-6.507-5.7256-12.519-15.447-17.469 1.9986-2.6805 3.1262-5.7278 3.1262-8.9688 0-10.643-12.196-19.281-27.247-19.281-0.7631 0-1.5208 0.0503-2.268 0.0937-6.5702-9.3815-26.683-16.219-50.479-16.219z" fill="#803300"/>
    <path d="m215.91 568.71c-15.577 0.54816-34.251 2.4321-43.531 16.469-5.969 5.6772-14.366 0.66637-21.438 1.4062-20.145-0.84811-42.41 0.98524-58.281 14.594-3.2307 4.7502 0.80936 10.481 5.4375 12.594-12.844-1.5071-27.517-1.2886-37.844 7.4688-7.287 5.4998-10.966 16.28-5.5312 24.25 3.1607 5.3174 8.4034 9.3793 14.344 11.125-6.869 16.642 7.291 35.378 24.062 38.094 10.164 1.8869 20.703 0.54515 30.063-3.8438-5.9927 14.413 5.9899 30.352 20.312 33.188 6.4996 1.8172 12.982-0.30197 18.5-3.6562 4.4286-1.9314 8.9249 0.42397 11.812 3.6875 7.1706 4.2006 16.431 0.70489 21.938-4.7188 8.5392-1.2444 13.939 7.6399 22.156 8.4375 24.568 8.0776 55.339 3.5884 72.5-16.75 4.4526-6.4599 5.9738-15.062 2.9062-22.438 14.675 0.2817 30.13-14.988 24.438-29.906-5.1836-11.653-18.139-16.582-30.156-17.938 6.8726-5.1336 18.64-7.1617 20.406-16.875-1.7683-9.1452-12.701-11.448-19.594-15.844-4.396-1.9542 2.8716-1.2741 4.0938-3.4375 6.134-5.537 1.9236-16.009-5.5312-17.812-7.6858-3.049-17.331-0.85329-23.406-7.4688-12.874-10.802-31.692-10.628-47.656-10.625z" fill="#ccc"/>
    <path d="m215.91 568.71c-15.577 0.54816-34.251 2.4321-43.531 16.469-5.969 5.6772-14.366 0.66637-21.438 1.4062-20.145-0.84811-42.41 0.98524-58.281 14.594-3.2307 4.7502 0.80936 10.481 5.4375 12.594-12.844-1.5071-27.517-1.2886-37.844 7.4688-7.287 5.4998-10.966 16.28-5.5312 24.25 3.1607 5.3174 8.4034 9.3793 14.344 11.125-6.869 16.642 7.291 35.378 24.062 38.094 10.164 1.8869 20.703 0.54515 30.063-3.8438-5.9927 14.413 5.9899 30.352 20.312 33.188 6.4996 1.8172 12.982-0.30197 18.5-3.6562 4.4286-1.9314 8.9249 0.42397 11.812 3.6875 7.1706 4.2006 16.431 0.70489 21.938-4.7188 8.5392-1.2444 13.939 7.6399 22.156 8.4375 24.568 8.0776 55.339 3.5884 72.5-16.75 4.4526-6.4599 5.9738-15.062 2.9062-22.438 14.675 0.2817 30.13-14.988 24.438-29.906-5.1836-11.653-18.139-16.582-30.156-17.938 6.8726-5.1336 18.64-7.1617 20.406-16.875-1.7683-9.1452-12.701-11.448-19.594-15.844-4.396-1.9542 2.8716-1.2741 4.0938-3.4375 6.134-5.537 1.9236-16.009-5.5312-17.812-7.6858-3.049-17.331-0.85329-23.406-7.4688-12.874-10.802-31.692-10.628-47.656-10.625z" fill="url(#ab)"/>
   </g>
  </g>
 </g>
</svg>
